<svg role="img" viewBox="0 0 24 24" xmlns="http://www.w3.org/2000/svg"><title>HackerRank</title><path d="M11.999 0C10.534 0 2.56 4.32 1.828 5.593c-.733 1.274-.733 9.543 0 10.816.732 1.272 8.706 5.592 10.171 5.592 1.466 0 9.44-4.32 10.172-5.592.733-1.273.733-9.542 0-10.816C21.439 4.32 13.465 0 12 0zm-1.04 4.8h1.211c.163 0 .295.132.295.296v4.72h2.238v-4.72c0-.164.132-.296.295-.296h1.211c.164 0 .296.132.296.296v10.808c0 .164-.132.296-.296.296h-1.21a.296.296 0 01-.296-.296v-4.72h-2.238v4.72a.296.296 0 01-.296.296h-1.21a.296.296 0 01-.296-.296V5.096c0-.164.132-.296.296-.296z" fill="#00EA64"/></svg>
